<?xml version="1.0" encoding="utf-8"?>
<!-- Generator: Adobe Illustrator 23.0.1, SVG Export Plug-In . SVG Version: 6.00 Build 0)  -->
<svg version="1.1" id="Layer_1" xmlns="http://www.w3.org/2000/svg" xmlns:xlink="http://www.w3.org/1999/xlink" x="0px" y="0px"
	 viewBox="0 0 48 48" style="enable-background:new 0 0 48 48;" xml:space="preserve">
<style type="text/css">
	.st0{fill:#313030;}
</style>
<path class="st0" d="M13.5,5C9.9,5,7,7.9,7,11.5v30c0,0.6,0.3,1.1,0.8,1.3c0.5,0.3,1.1,0.2,1.6-0.1l9.7-7c0-0.3,0-0.5,0-0.8
	c0-1.1,0.2-2.2,0.4-3.2L10,38.6V11.5C10,9.6,11.6,8,13.5,8h15c1.9,0,3.5,1.6,3.5,3.5V22c1,0,2,0.1,3,0.4V11.5C35,7.9,32.1,5,28.5,5
	H13.5z M32,24c-6.1,0-11,4.9-11,11s4.9,11,11,11s11-4.9,11-11S38.1,24,32,24z M32,27c0.6,0,1,0.4,1,1v6h6c0.6,0,1,0.4,1,1
	s-0.4,1-1,1h-6v6c0,0.6-0.4,1-1,1s-1-0.4-1-1v-6h-6c-0.6,0-1-0.4-1-1s0.4-1,1-1h6v-6C31,27.4,31.4,27,32,27z"/>
</svg>
