<?xml version="1.0" encoding="utf-8"?>
<!-- Generator: Adobe Illustrator 23.0.1, SVG Export Plug-In . SVG Version: 6.00 Build 0)  -->
<svg version="1.1" id="Layer_1" xmlns="http://www.w3.org/2000/svg" xmlns:xlink="http://www.w3.org/1999/xlink" x="0px" y="0px"
	 viewBox="0 0 512 512" style="enable-background:new 0 0 512 512;" xml:space="preserve">
<g>
	<g>
		<g>
			<path d="M466.9,192.9h-105l-76-77.2C284,100.7,271.3,89,256,89c-15.3,0-28,11.7-29.8,26.7l-76,77.2h-105
				C26.9,192.9,12,208,12,226.5v162.9c0,18.5,14.9,33.6,33.1,33.6h421.8c18.3,0,33.1-15.1,33.1-33.6V226.5
				C500,208,485.1,192.9,466.9,192.9z M256,106.3c7.2,0,13.1,6,13.1,13.3s-5.9,13.3-13.1,13.3c-7.2,0-13.1-6-13.1-13.3
				C242.9,112.2,248.8,106.3,256,106.3z M230.5,135.7c5.3,8.6,14.8,14.4,25.5,14.4c10.7,0,20.2-5.7,25.5-14.4l56.3,57.2H174.2
				L230.5,135.7z M483,389.4c0,9-7.2,16.3-16.1,16.3H45.1c-8.9,0-16.1-7.3-16.1-16.3V226.5c0-9,7.2-16.3,16.1-16.3h421.8
				c8.9,0,16.1,7.3,16.1,16.3L483,389.4L483,389.4z"/>
			<path d="M299.2,258.4c-4.7,0-8.5,3.9-8.5,8.6v81.9c0,4.8,3.8,8.6,8.5,8.6s8.5-3.9,8.5-8.6V267
				C307.7,262.2,303.9,258.4,299.2,258.4z"/>
			<path d="M256.9,259.9c-3.9-2.7-9.2-1.6-11.8,2.3l-20.2,30.3l-20.2-30.3c-2.6-4-7.9-5-11.8-2.3c-3.9,2.7-4.9,8-2.3,12l24,36.1
				l-24,36.1c-2.6,4-1.6,9.3,2.3,12c1.5,1,3.1,1.5,4.7,1.5c2.7,0,5.4-1.3,7.1-3.8l20.2-30.3l20.2,30.3c1.6,2.5,4.3,3.8,7.1,3.8
				c1.6,0,3.3-0.5,4.7-1.5c3.9-2.7,4.9-8,2.3-12l-24-36.1l24-36.1C261.8,267.9,260.8,262.5,256.9,259.9z"/>
			<path d="M163.7,340.3h-39.2v-22.8h15.3c4.7,0,8.5-3.9,8.5-8.6c0-4.8-3.8-8.6-8.5-8.6h-15.3v-24.6h39.2c4.7,0,8.5-3.9,8.5-8.6
				c0-4.8-3.8-8.6-8.5-8.6H116c-4.7,0-8.5,3.9-8.5,8.6v81.9c0,4.8,3.8,8.6,8.5,8.6h47.7c4.7,0,8.5-3.9,8.5-8.6
				C172.2,344.1,168.4,340.3,163.7,340.3z"/>
			<path d="M396,258.4h-58.7c-4.7,0-8.5,3.9-8.5,8.6s3.8,8.6,8.5,8.6h20.8v73.3c0,4.8,3.8,8.6,8.5,8.6s8.5-3.9,8.5-8.6v-73.3H396
				c4.7,0,8.5-3.9,8.5-8.6S400.7,258.4,396,258.4z"/>
		</g>
	</g>
</g>
</svg>
