<svg width="21" height="30" viewBox="0 0 21 30" fill="none" xmlns="http://www.w3.org/2000/svg">
<path d="M21 30V3C21 1.3455 19.6545 0 18 0H3C1.3455 0 0 1.3455 0 3V30L10.5 23.001L21 30ZM4.509 9.084C4.509 8.232 4.845 7.4595 5.3865 6.9C5.928 6.342 6.6765 5.9955 7.5045 5.9955C7.5045 5.9955 8.9985 5.991 10.5 7.539C12.0015 5.991 13.4955 5.9955 13.4955 5.9955C14.3235 5.9955 15.072 6.3405 15.6135 6.9C16.155 7.4595 16.491 8.232 16.491 9.084C16.491 9.936 16.155 10.71 15.6135 11.268L10.5 16.8045L5.3865 11.268C4.8205 10.6822 4.50563 9.89855 4.509 9.084Z" fill="black"/>
</svg>
