<svg width="24" height="34" viewBox="0 0 24 34" fill="none" xmlns="http://www.w3.org/2000/svg">
<path d="M22.0395 0H1.84313C0.825258 0 0 0.825257 0 1.84286V31.3821C0 32.9163 1.76489 33.7788 2.97538 32.8365L10.5697 26.9222C11.224 26.4128 12.1382 26.4029 12.803 26.8987L20.9384 32.9598C22.1541 33.8657 23.8824 32.9981 23.8824 31.482L23.8829 1.84335C23.8829 0.82548 23.0577 0.000222866 22.0398 0.000222866L22.0395 0ZM19.0416 12.4985L12.7912 18.7489C12.5571 18.9825 12.2498 19.0993 11.9421 19.0993C11.6351 19.0993 11.3279 18.9825 11.0943 18.7489L4.84094 12.4985C2.93328 10.5903 2.93328 7.48478 4.84094 5.57623C5.7685 4.65161 6.99744 4.14267 8.30297 4.14267C9.60905 4.14267 10.8383 4.65134 11.7621 5.57623L11.9418 5.75462L12.1202 5.57623C14.0263 3.67015 17.131 3.67015 19.0411 5.57623C20.9488 7.48444 20.9488 10.59 19.0414 12.4985H19.0416Z" fill="black"/>
</svg>
