<?xml version="1.0" encoding="utf-8"?>
<!-- Generator: Adobe Illustrator 23.0.1, SVG Export Plug-In . SVG Version: 6.00 Build 0)  -->
<svg version="1.1" id="Layer_1" xmlns="http://www.w3.org/2000/svg" xmlns:xlink="http://www.w3.org/1999/xlink" x="0px" y="0px"
	 viewBox="0 0 48 48" style="enable-background:new 0 0 48 48;" xml:space="preserve">
<style type="text/css">
	.st0{fill:#313030;}
</style>
<path class="st0" d="M6,12.3h5.2H42c2.8,0,5.2-2.1,5.2-4.7S44.9,2.9,42,2.9H11.1H6C3.1,2.9,0.8,5,0.8,7.6S3.1,12.3,6,12.3z"/>
<path class="st0" d="M42,19.3h-7.7H6c-2.8,0-5.2,2.1-5.2,4.7s2.3,4.7,5.2,4.7h28.4H42c2.8,0,5.2-2.1,5.2-4.7S44.9,19.3,42,19.3z"/>
<path class="st0" d="M42,35.7H26.6H6c-2.8,0-5.2,2.1-5.2,4.7s2.3,4.7,5.2,4.7h20.6H42c2.8,0,5.2-2.1,5.2-4.7S44.9,35.7,42,35.7z"/>
</svg>
