<?xml version="1.0" encoding="utf-8"?>
<!-- Generator: Adobe Illustrator 23.0.1, SVG Export Plug-In . SVG Version: 6.00 Build 0)  -->
<svg version="1.1" id="Layer_1" xmlns="http://www.w3.org/2000/svg" xmlns:xlink="http://www.w3.org/1999/xlink" x="0px" y="0px"
	 viewBox="0 0 512 512" style="enable-background:new 0 0 512 512;" xml:space="preserve">
<g>
	<g>
		<path d="M377,159.2c-37.6,0-70.8,17.5-93,44.5l-131.2-87.5c4-9.1,6.4-19,6.4-29.6c0-40.1-32.5-72.6-72.6-72.6S14,46.5,14,86.6
			s32.5,72.6,72.6,72.6c20.8,0,39.5-8.9,52.7-22.9l131.3,87.5c-9,16.9-14.6,35.9-14.6,56.4c0,13.6,2.7,26.4,6.9,38.6L193,350.6
			c-17.1-27.6-47.3-46.2-82.2-46.2c-53.5,0-96.8,43.3-96.8,96.8c0,53.5,43.3,96.8,96.8,96.8c53.5,0,96.8-43.3,96.8-96.8
			c0-10-2-19.5-4.8-28.5l70-31.8c21,35.9,59.5,60.4,104.1,60.4c66.8,0,121-54.2,121-121S443.8,159.2,377,159.2z M86.6,135
			c-26.7,0-48.4-21.7-48.4-48.4s21.7-48.4,48.4-48.4S135,59.9,135,86.6S113.3,135,86.6,135z M110.8,473.8c-40,0-72.6-32.6-72.6-72.6
			s32.6-72.6,72.6-72.6s72.6,32.6,72.6,72.6S150.8,473.8,110.8,473.8z M377,377c-53.4,0-96.8-43.4-96.8-96.8s43.4-96.8,96.8-96.8
			s96.8,43.4,96.8,96.8S430.4,377,377,377z"/>
	</g>
</g>
</svg>
